# AST/ASF file generated using VICON BodyLanguage
# -----------------------------------------------
:version 1.10
:name VICON
:units
  mass 1.0
  length 0.45
  angle deg
:documentation
   .ast/.asf automatically generated from VICON data using
   VICON BodyBuilder and BodyLanguage model FoxedUp or BRILLIANT.MOD
:root
   order TX TY TZ RX RY RZ
   axis XYZ
   position 0 0 0  
   orientation 0 0 0 
:bonedata
  begin
     id 1 
     name lhipjoint
     direction 0.603808 -0.713975 0.35448 
     length 2.2025 
     axis 0 0 0  XYZ
  end
  begin
     id 2 
     name lfemur
     direction 0.34202 -0.939693 0  
     length 6.55877  
     axis 0 0 20  XYZ
    dof rx ry rz
    limits (-160.0 20.0)
           (-70.0 70.0)
           (-60.0 70.0)
  end
  begin
     id 3 
     name ltibia
     direction 0.34202 -0.939693 0   
     length 6.80302   
     axis 0 0 20   XYZ
    dof rx
    limits (-10.0 170.0)
  end
  begin
     id 4 
     name lfoot
     direction 0.091848 -0.25235 0.963267   
     length 2.03446   
     axis -90 7.62852e-016 20   XYZ
    dof rx rz
    limits (-45.0 90.0)
           (-70.0 20.0)
  end
  begin
     id 5 
     name ltoes
     direction 1.53608e-011 -4.21925e-011 1   
     length 1.02033   
     axis -90 7.62852e-016 20   XYZ
    dof rx
    limits (-90.0 20.0)
  end
  begin
     id 6 
     name rhipjoint
     direction -0.587285 -0.724947 0.359928   
     length 2.16916  
     axis 0 0 0  XYZ 
  end
  begin
     id 7 
     name rfemur
     direction -0.34202 -0.939693 0   
     length 6.43173   
     axis 0 0 -20   XYZ
    dof rx ry rz
    limits (-160.0 20.0)
           (-70.0 70.0)
           (-70.0 60.0)
  end
  begin
     id 8 
     name rtibia
     direction -0.34202 -0.939693 0   
     length 6.70662   
     axis 0 0 -20   XYZ
    dof rx
    limits (-10.0 170.0)
 end
 begin
     id 9 
     name rfoot
     direction -0.11854 -0.325686 0.938018   
     length 2.0773  
     axis -90 -7.62852e-016 -20   XYZ
    dof rx rz
    limits (-45.0 90.0)
           (-20.0 70.0)
  end
  begin
     id 10 
     name rtoes
     direction -1.53547e-011 -4.21838e-011 1   
     length 1.03267   
     axis -90 -7.62852e-016 -20   XYZ
    dof rx
    limits (-90.0 20.0)
  end
  begin
     id 11 
     name lowerback
     direction -0.0286554 0.999539 0.0100613   
     length 2.08751   
     axis 0 0 0   XYZ
    dof rx ry rz
    limits (-20.0 45.0)
           (-30.0 30.0)
           (-30.0 30.0)
  end
  begin
     id 12 
     name upperback
     direction 0.0227093 0.999705 -0.00860929   
     length 2.08517   
     axis 0 0 0   XYZ
    dof rx ry rz
    limits (-20.0 45.0)
           (-30.0 30.0)
           (-30.0 30.0)
  end
  begin
     id 13 
     name thorax
     direction 0.0351627 0.999285 -0.013892   
     length 2.08412   
     axis 0 0 0   XYZ
    dof rx ry rz
    limits (-20.0 45.0)
           (-30.0 30.0)
           (-30.0 30.0)
  end
  begin
     id 14 
     name lowerneck
     direction -0.0696283 0.997344 0.0213922   
     length 1.44164   
     axis 0 0 0   XYZ
    dof rx ry rz
    limits (-20.0 45.0)
           (-30.0 30.0)
           (-30.0 30.0)
  end
  begin
     id 15 
     name upperneck
     direction 0.0531 0.990412 -0.127531   
     length 1.45022   
     axis 0 0 0   XYZ
    dof rx ry rz
    limits (-20.0 45.0)
           (-30.0 30.0)
           (-30.0 30.0)
  end
  begin
     id 16
     name head
     direction 0.0188154 0.998548 -0.0504727  
     length 1.45845  
     axis 0 0 0   XYZ
    dof rx ry rz
    limits (-20.0 45.0)
           (-30.0 30.0)
           (-30.0 30.0)
  end
  begin
     id 17 
     name lclavicle
     direction 0.961559 0.260051 0.088188  
     length 2.86057  
     axis 0 0 0   XYZ
    dof ry rz
    limits (-20.0 10.0)
           (0.0 20.0)
  end
  begin
     id 18 
     name lhumerus
     direction 1 -4.48959e-011 2.88185e-027   
     length 4.36901   
     axis 180 -30 -90   XYZ
    dof rx ry rz
    limits (-60.0 90.0)
           (-90.0 90.0)
           (-90.0 90.0)
  end
  begin
     id 19
     name lradius
     direction 1 -4.48965e-011 -3.92618e-028   
     length 3.21737   
     axis 180 -30 -90   XYZ
    dof rx
    limits (-10.0 170.0)
  end
  begin
     id 20
     name lwrist
     direction 1 -4.49037e-011 2.57246e-027   
     length 1.60869   
     axis -1.61769e-015 90 90   XYZ
    dof ry
    limits (-180.0 0.0)
 end
  begin
     id 21 
     name lhand
     direction 1 -4.48807e-011 5.12958e-027   
     length 0.564313   
     axis -3.27988e-015 90 90   XYZ
    dof rx rz
    limits (-90.0 90.0)
           (-45.0 45.0)
  end
  begin
     id 22 
     name lfingers
     direction 1 -4.48879e-011 1.02687e-026   
     length 0.454963   
     axis -6.5598e-015 90 90   XYZ
    dof rx
    limits (0.0 90.0)
  end
  begin
     id 23
     name lthumb
     direction 0.707107 -6.3475e-011 0.707107   
     length 0.653239   
     axis -90 45 2.19363e-014   XYZ
    dof rx rz
    limits (-45.0 45.0)
           (-45.0 45.0)
  end
  begin
     id 24 
     name rclavicle
     direction -0.954677 0.253915 0.155304   
     length 3.11497  
     axis 0 0 0   XYZ 
    dof ry rz
    limits (-10.0 20.0)
           (-20.0 0.0)
  end
  begin
     id 25 
     name rhumerus
     direction -1 -4.48958e-011 -8.20169e-028  
     length 4.34118   
     axis 180 30 90   XYZ
    dof rx ry rz
    limits (-90.0 60.0)
           (-90.0 90.0)
           (-90.0 90.0)
  end
  begin
     id 26 
     name rradius
     direction -1 -4.48978e-011 1.5676e-027   
     length 3.09531   
     axis 180 30 90   XYZ
    dof rx
    limits (-10.0 170.0)
  end
  begin
     id 27 
     name rwrist
     direction -1 -4.49001e-011 2.57123e-027   
     length 1.54765   
     axis -1.61769e-015 -90 -90   XYZ
    dof ry
    limits (-180.0 0.0)
  end
  begin
     id 28
     name rhand
     direction -1 -4.48847e-011 5.13225e-027   
     length 0.597446   
     axis -3.27988e-015 -90 -90   XYZ
    dof rx rz
    limits (-90.0 90.0)
           (-45.0 45.0)
  end
  begin
     id 29
     name rfingers
     direction -1 -4.49094e-011 1.02974e-026   
     length 0.481677   
     axis -6.5598e-015 -90 -90   XYZ
    dof rx
    limits (0.0 90.0)
  end
  begin
     id 30
     name rthumb
     direction -0.707107 -6.34859e-011 0.707107   
     length 0.691594   
     axis -90 -45 -2.19363e-014   XYZ
    dof rx rz
    limits (-45.0 45.0)
           (-45.0 45.0)
  end
:hierarchy
  begin
    root lhipjoint rhipjoint lowerback
    lhipjoint lfemur
    lfemur ltibia
    ltibia lfoot
    lfoot ltoes
    rhipjoint rfemur
    rfemur rtibia
    rtibia rfoot
    rfoot rtoes
    lowerback upperback
    upperback thorax
    thorax lowerneck lclavicle rclavicle
    lowerneck upperneck
    upperneck head
    lclavicle lhumerus
    lhumerus lradius
    lradius lwrist
    lwrist lhand lthumb
    lhand lfingers
    rclavicle rhumerus
    rhumerus rradius
    rradius rwrist
    rwrist rhand rthumb
    rhand rfingers
  end

#!OML:ASF G:\acrobat\cartwheel_test 2\Patient 1\Session 1\acrobat.ASF
:FULLY-SPECIFIED
:DEGREES
178
root 7.68337 14.6089 -0.560761 -9.40065 -0.280826 0.771205
lowerback -1.37681 -1.65557 -4.81566
upperback 0.576914 -2.14317 1.94602
thorax 1.61946 -1.13206 4.64958
lowerneck -0.525509 -14.3194 -14.5441
upperneck 10.7877 -19.769 8.39371
head 5.61842 -9.94806 3.47898
rclavicle 1.09332e-014 3.18055e-015
rhumerus 46.465 5.80995 -66.2524
rradius 19.6601
rwrist 29.3611
rhand -3.93596 30.8967
rfingers 7.12502
rthumb 21.8155 2.10633
lclavicle 1.09332e-014 3.18055e-015
lhumerus 43.4792 -16.4637 40.5447
lradius 29.1904
lwrist 13.4838
lhand -4.27045 42.9511
lfingers 7.12502
lthumb 21.4942 71.7786
rfemur -10.4104 -6.7143 11.994
rtibia 51.9702
rfoot -29.7949 -15.2269
rtoes -13.763
lfemur -13.8362 5.17045 -9.39026
ltibia 54.413
lfoot -24.8654 11.1722
ltoes -13.9058
179
root 7.68415 14.609 -0.559025 -9.41785 -0.26331 0.817974
lowerback -1.39601 -1.67646 -4.8805
upperback 0.603568 -2.16858 1.9393
thorax 1.66302 -1.14723 4.67735
lowerneck -0.517372 -14.3079 -14.5406
upperneck 10.7881 -19.7583 8.42126
head 5.61843 -9.94177 3.48861
rclavicle 1.68967e-015 2.38542e-015
rhumerus 46.5142 5.89439 -66.2069
rradius 19.7113
rwrist 29.3262
rhand -3.84721 30.8868
rfingers 7.12502
rthumb 21.9007 2.10631
lclavicle 1.68967e-015 2.38542e-015
lhumerus 43.4646 -16.3983 40.5385
lradius 29.2896
lwrist 13.4491
lhand -4.28877 42.9694
lfingers 7.12502
lthumb 21.4766 71.7988
rfemur -10.3794 -6.75399 11.9175
rtibia 51.9908
rfoot -29.7773 -15.2221
rtoes -13.9148
lfemur -13.8093 5.12195 -9.45921
ltibia 54.4201
lfoot -24.8781 11.1996
ltoes -14.0176
180
root 7.68586 14.6078 -0.557184 -9.4014 -0.256782 0.848149
lowerback -1.42326 -1.70207 -4.90757
upperback 0.613123 -2.20088 1.93747
thorax 1.69303 -1.16473 4.68859
lowerneck -0.602168 -14.3165 -14.5042
upperneck 10.8746 -19.7548 8.33531
head 5.64668 -9.94008 3.44979
rclavicle -1.35174e-014 4.37326e-015
rhumerus 46.5702 5.94894 -66.2439
rradius 19.739
rwrist 29.4028
rhand -3.83772 30.8105
rfingers 7.12502
rthumb 21.9098 2.03106
lclavicle -1.35174e-014 4.37326e-015
lhumerus 43.4076 -16.2845 40.6184
lradius 29.3588
lwrist 13.3545
lhand -4.18724 42.9081
lfingers 7.12502
lthumb 21.5742 71.7263
rfemur -10.3816 -6.77688 11.8637
rtibia 51.9722
rfoot -29.6981 -15.2444
rtoes -14.1494
lfemur -13.824 5.1011 -9.51546
ltibia 54.436
lfoot -24.8505 11.2208
ltoes -13.9626
181
root 7.68774 14.6068 -0.555695 -9.34783 -0.260952 0.907658
lowerback -1.47118 -1.71607 -4.94341
upperback 0.6087 -2.21635 1.91772
thorax 1.71785 -1.17328 4.68635
lowerneck -0.69556 -14.3169 -14.4634
upperneck 10.949 -19.7417 8.27594
head 5.67365 -9.9321 3.41913
rclavicle 1.31198e-014 1.31198e-014
rhumerus 46.6228 5.99024 -66.2698
rradius 19.7531
rwrist 29.4344
rhand -3.77785 30.7121
rfingers 7.12502
rthumb 21.9673 1.93948
lclavicle 1.31198e-014 1.31198e-014
lhumerus 43.3834 -16.191 40.6658
lradius 29.3881
lwrist 13.2388
lhand -4.14374 42.6081
lfingers 7.12502
lthumb 21.6159 71.4216
rfemur -10.448 -6.78862 11.7811
rtibia 51.9777
rfoot -29.6633 -15.2014
rtoes -14.1512
lfemur -13.8804 5.10829 -9.60818
ltibia 54.4661
lfoot -24.8715 11.1854
ltoes -13.6996
182
root 7.6883 14.6059 -0.555476 -9.29591 -0.286843 0.941841
lowerback -1.49641 -1.69789 -4.95503
upperback 0.568545 -2.19061 1.89164
thorax 1.68689 -1.1585 4.66668
lowerneck -0.627084 -14.3186 -14.3918
upperneck 10.9509 -19.7513 8.23306
head 5.65255 -9.93855 3.40199
rclavicle 9.93923e-016 2.0276e-014
rhumerus 46.59 5.90157 -66.4158
rradius 19.7089
rwrist 29.5655
rhand -3.69984 30.7963
rfingers 7.12502
rthumb 22.0422 2.03242
lclavicle 9.93923e-016 2.0276e-014
lhumerus 43.3939 -16.2787 40.5924
lradius 29.4727
lwrist 13.2512
lhand -4.06391 42.4143
lfingers 7.12502
lthumb 21.6926 71.2189
rfemur -10.5431 -6.77595 11.7542
rtibia 52.0383
rfoot -29.663 -15.1846
rtoes -14.134
lfemur -13.9333 5.12074 -9.6465
ltibia 54.4616
lfoot -24.8811 11.1818
ltoes -13.6176
183
root 7.68711 14.6034 -0.554737 -9.26446 -0.352512 0.886784
lowerback -1.49574 -1.6602 -4.89024
upperback 0.523323 -2.14208 1.89142
thorax 1.63154 -1.13093 4.6324
lowerneck -0.463761 -14.328 -14.3107
upperneck 10.8693 -19.7821 8.21788
head 5.59396 -9.95658 3.3996
rclavicle 1.49089e-015 -1.03368e-014
rhumerus 46.493 5.8579 -66.4643
rradius 19.694
rwrist 29.6152
rhand -3.76532 30.9525
rfingers 7.12502
rthumb 21.9793 2.18124
lclavicle 1.49089e-015 -1.03368e-014
lhumerus 43.3986 -16.3693 40.5775
lradius 29.5499
lwrist 13.2662
lhand -3.90756 42.3198
lfingers 7.12502
lthumb 21.8427 71.107
rfemur -10.6295 -6.73033 11.8596
rtibia 52.1126
rfoot -29.6758 -15.258
rtoes -14.3571
lfemur -13.9886 5.17728 -9.55489
ltibia 54.5223
lfoot -24.9168 11.1853
ltoes -13.5973
184
root 7.68729 14.6003 -0.552049 -9.25425 -0.40427 0.845805
lowerback -1.5125 -1.64202 -4.82473
upperback 0.528771 -2.11838 1.89511
thorax 1.64143 -1.11881 4.59948
lowerneck -0.435397 -14.3166 -14.3092
upperneck 10.8176 -19.7761 8.28869
head 5.57946 -9.95123 3.42488
rclavicle -8.05078e-015 2.50469e-014
rhumerus 46.4793 5.89701 -66.4122
rradius 19.7132
rwrist 29.6017
rhand -3.85216 31.0459
rfingers 7.12502
rthumb 21.8959 2.2649
lclavicle -8.05078e-015 2.50469e-014
lhumerus 43.3729 -16.3031 40.655
lradius 29.5866
lwrist 13.1751
lhand -3.91373 42.2407
lfingers 7.12502
lthumb 21.8368 71.0286
rfemur -10.6675 -6.68932 11.9218
rtibia 52.1442
rfoot -29.6836 -15.2614
rtoes -14.4449
lfemur -14.0229 5.22296 -9.49716
ltibia 54.5957
lfoot -24.9077 11.2569
ltoes -13.8478
185
root 7.68916 14.5981 -0.548801 -9.26555 -0.415864 0.909871
lowerback -1.55732 -1.64408 -4.85146
upperback 0.578462 -2.11769 1.87369
thorax 1.71802 -1.1218 4.59023
lowerneck -0.491101 -14.314 -14.3008
upperneck 10.7879 -19.7638 8.2988
head 5.57802 -9.94244 3.42485
rclavicle -7.15625e-015 2.42517e-014
rhumerus 46.5485 5.94567 -66.3882
rradius 19.7261
rwrist 29.5476
rhand -3.8547 31.006
rfingers 7.12502
rthumb 21.8935 2.22471
lclavicle -7.15625e-015 2.42517e-014
lhumerus 43.3463 -16.2036 40.7091
lradius 29.6312
lwrist 13.1326
lhand -3.91613 42.2272
lfingers 7.12502
lthumb 21.8345 71.0154
rfemur -10.6384 -6.65505 11.8317
rtibia 52.1463
rfoot -29.7389 -15.157
rtoes -14.0636
lfemur -13.9948 5.21038 -9.58975
ltibia 54.6038
lfoot -24.9053 11.3312
ltoes -14.0457
186
root 7.68999 14.596 -0.54612 -9.28266 -0.425288 0.964584
lowerback -1.58314 -1.64271 -4.88536
upperback 0.604061 -2.11328 1.84962
thorax 1.75881 -1.12149 4.58338
lowerneck -0.537942 -14.3329 -14.1913
upperneck 10.8407 -19.7735 8.16393
head 5.57859 -9.94796 3.36531
rclavicle -1.3418e-014 4.37326e-015
rhumerus 46.5614 5.96388 -66.4225
rradius 19.7202
rwrist 29.5119
rhand -3.89347 30.9135
rfingers 7.12502
rthumb 21.8563 2.12787
lclavicle -1.3418e-014 4.37326e-015
lhumerus 43.3169 -16.1741 40.7536
lradius 29.6446
lwrist 13.0447
lhand -3.81956 42.2279
lfingers 7.12502
lthumb 21.9272 71.0052
rfemur -10.6217 -6.64473 11.7633
rtibia 52.2013
rfoot -29.7574 -15.1555
rtoes -14.1219
lfemur -13.9545 5.17529 -9.66123
ltibia 54.5795
lfoot -24.919 11.3854
ltoes -14.1564
187
root 7.69023 14.5938 -0.543362 -9.29647 -0.437738 0.924689
lowerback -1.59251 -1.61236 -4.81281
upperback 0.611388 -2.07338 1.82318
thorax 1.76323 -1.10078 4.51599
lowerneck -0.623887 -14.3717 -14.0475
upperneck 11.0157 -19.8194 8.04924
head 5.62648 -9.96815 3.29608
rclavicle -5.96354e-015 9.93923e-015
rhumerus 46.4978 5.77751 -66.5868
rradius 19.6753
rwrist 29.7112
rhand -3.97709 31.0215
rfingers 7.12502
rthumb 21.776 2.22651
lclavicle -5.96354e-015 9.93923e-015
lhumerus 43.3647 -16.3001 40.693
lradius 29.6657
lwrist 13.062
lhand -3.92173 42.2344
lfingers 7.12502
lthumb 21.8291 71.0232
rfemur -10.6245 -6.65429 11.8104
rtibia 52.2404
rfoot -29.7269 -15.2168
rtoes -14.5165
lfemur -13.9525 5.17898 -9.60612
ltibia 54.6061
lfoot -24.9245 11.389
ltoes -14.1153
188
root 7.6896 14.5914 -0.540077 -9.34648 -0.448732 0.838775
lowerback -1.58054 -1.57548 -4.69952
upperback 0.643954 -2.0267 1.81467
thorax 1.78025 -1.07727 4.44468
lowerneck -0.694927 -14.4128 -13.9814
upperneck 11.1431 -19.8748 8.01701
head 5.67429 -9.99212 3.26207
rclavicle -6.06293e-015 1.59028e-015
rhumerus 46.447 5.65453 -66.6059
rradius 19.6544
rwrist 29.751
rhand -4.10809 31.1132
rfingers 7.12502
rthumb 21.6502 2.30363
lclavicle -6.06293e-015 1.59028e-015
lhumerus 43.4494 -16.4723 40.5791
lradius 29.7255
lwrist 13.2859
lhand -3.93664 42.2015
lfingers 7.12502
lthumb 21.8148 70.992
rfemur -10.5598 -6.63589 11.9132
rtibia 52.2234
rfoot -29.7837 -15.203
rtoes -14.2091
lfemur -13.9132 5.23656 -9.48303
ltibia 54.6748
lfoot -24.9586 11.3665
ltoes -14.0933
189
root 7.68803 14.5891 -0.53672 -9.41246 -0.448451 0.756674
lowerback -1.54876 -1.60022 -4.65673
upperback 0.669686 -2.06295 1.87824
thorax 1.79389 -1.09636 4.48567
lowerneck -0.762424 -14.3999 -14.0932
upperneck 11.2533 -19.849 7.99988
head 5.72682 -9.98247 3.26468
rclavicle -1.65985e-014 0
rhumerus 46.4741 5.81675 -66.4599
rradius 19.6639
rwrist 29.5802
rhand -4.14217 31.1268
rfingers 7.12502
rthumb 21.6174 2.31348
lclavicle -1.65985e-014 0
lhumerus 43.3596 -16.5266 40.5318
lradius 29.788
lwrist 13.4729
lhand -3.52858 42.1258
lfingers 7.12502
lthumb 22.2066 70.8701
rfemur -10.4664 -6.61903 12.0164
rtibia 52.2283
rfoot -29.8436 -15.2179
rtoes -13.9775
lfemur -13.8505 5.24798 -9.36597
ltibia 54.7494
lfoot -25.063 11.3016
ltoes -13.9252
190
root 7.68672 14.5874 -0.533758 -9.46182 -0.440481 0.721377
lowerback -1.50539 -1.63554 -4.67147
upperback 0.653045 -2.11281 1.93453
thorax 1.76078 -1.1207 4.55215
lowerneck -0.780337 -14.3546 -14.268
upperneck 11.4187 -19.795 8.0387
head 5.79758 -9.9609 3.29704
rclavicle -7.7526e-015 4.37326e-015
rhumerus 46.4443 5.89751 -66.5076
rradius 19.6483
rwrist 29.6744
rhand -4.03246 31.1188
rfingers 7.12502
rthumb 21.7228 2.31766
lclavicle -7.7526e-015 4.37326e-015
lhumerus 43.1986 -16.6357 40.424
lradius 29.8623
lwrist 13.6394
lhand -3.11357 42.14
lfingers 7.12502
lthumb 22.605 70.8364
rfemur -10.4065 -6.60745 12.0671
rtibia 52.2705
rfoot -29.8457 -15.261
rtoes -14.1944
lfemur -13.8034 5.21677 -9.31374
ltibia 54.7967
lfoot -25.1917 11.2146
ltoes -13.5789
191
root 7.68571 14.5862 -0.532161 -9.48028 -0.431756 0.703437
lowerback -1.49716 -1.62863 -4.66579
upperback 0.639959 -2.10427 1.94057
thorax 1.74168 -1.1156 4.55599
lowerneck -0.709769 -14.3312 -14.3684
upperneck 11.4927 -19.7901 8.15126
head 5.8305 -9.95965 3.34628
rclavicle 2.29596e-014 -1.82882e-014
rhumerus 46.3699 5.82351 -66.6026
rradius 19.6217
rwrist 29.8504
rhand -3.97243 30.9782
rfingers 7.12502
rthumb 21.7804 2.18368
lclavicle 2.29596e-014 -1.82882e-014
lhumerus 43.1576 -16.8318 40.2595
lradius 29.8921
lwrist 13.7145
lhand -3.18324 42.2284
lfingers 7.12502
lthumb 22.5381 70.9329
rfemur -10.3975 -6.5745 12.1026
rtibia 52.3134
rfoot -29.8802 -15.2572
rtoes -14.144
lfemur -13.7996 5.21281 -9.28793
ltibia 54.8333
lfoot -25.2316 11.2202
ltoes -13.5951
192
root 7.68472 14.5849 -0.530424 -9.45869 -0.400978 0.698128
lowerback -1.56765 -1.63399 -4.68046
upperback 0.661935 -2.10806 1.9512
thorax 1.80541 -1.11992 4.57285
lowerneck -0.72326 -14.3404 -14.4013
upperneck 11.5068 -19.8058 8.18984
head 5.84623 -9.96612 3.35822
rclavicle 1.0635e-014 4.37326e-015
rhumerus 46.3775 5.95398 -66.37
rradius 19.6686
rwrist 29.5769
rhand -4.10538 30.7627
rfingers 7.12502
rthumb 21.6528 1.95344
lclavicle 1.0635e-014 4.37326e-015
lhumerus 43.1482 -16.8493 40.2874
lradius 29.7853
lwrist 13.5267
lhand -3.48082 42.2556
lfingers 7.12502
lthumb 22.2524 70.9945
rfemur -10.4384 -6.58145 12.1093
rtibia 52.3747
rfoot -29.9877 -15.2287
rtoes -13.9208
lfemur -13.8659 5.20174 -9.28954
ltibia 54.9153
lfoot -25.219 11.2516
ltoes -13.7758
